<?xml version="1.0" encoding="UTF-8"?>
<svg id="Layer_1" xmlns="http://www.w3.org/2000/svg" version="1.1" viewBox="0 0 800 800">
  <!-- Generator: Adobe Illustrator 29.4.0, SVG Export Plug-In . SVG Version: 2.1.0 Build 152)  -->
  <defs>
    <style>
      .st0 {
        fill: none;
        stroke: #fff;
        stroke-linecap: round;
        stroke-linejoin: round;
        stroke-width: 66.7px;
      }
    </style>
  </defs>
  <path class="st0" d="M333.3,600v-3.6c0-26.5-16.5-49.6-37.2-66.1-72-57.4-83.8-162.3-26.4-234.2,57.4-72,162.3-83.8,234.2-26.4,72,57.4,83.8,162.3,26.4,234.2-7.8,9.8-16.6,18.6-26.4,26.4-20.7,16.6-37.3,39.6-37.3,66.1v3.6M333.3,600v66.7c0,18.4,14.9,33.3,33.3,33.3h66.7c18.4,0,33.3-14.9,33.3-33.3v-66.7M333.3,600h133.3M666.7,400h33.3M133.3,400h-33.3M400,133.3v-33.3M588.6,211.4l23.6-23.6M211.5,211.4l-23.6-23.6"/>
</svg>