<?xml version="1.0" encoding="UTF-8"?>
<svg id="Layer_1" data-name="Layer 1" xmlns="http://www.w3.org/2000/svg" viewBox="0 0 841.89 210.01">
  <defs>
    <style>
      .cls-1 {
        fill: #000;
      }

      .cls-2 {
        fill: #f0f;
      }

      .cls-3 {
        fill: #33c;
      }
    </style>
  </defs>
  <path class="cls-1" d="M62.17,86.11c2.45,3.34,2.27,6.49-.55,9.46-3.28,2.45-6.44,2.27-9.46-.55-6.36-6.88-12.38-10.09-18.07-9.62-5.11.52-8.99,2.92-11.65,7.19-1.62,2.5-2.5,5.25-2.66,8.25-.16,3,.6,5.93,2.27,8.8,2.55,4.38,7.46,7.87,14.7,10.48,11.83,4.12,23.51,3.65,35.04-1.41,5.79-2.87,9.85-6.88,12.2-12.04,2.35-5.16,3.08-10.62,2.19-16.38-.89-5.76-3.34-10.96-7.35-15.6-5.01-5.58-10.47-9.87-16.38-12.86-5.92-3-12.16-5.33-18.73-7-6.57-1.67-13.4-3.31-20.49-4.93-7.19-1.88-12.59-4.38-16.19-7.51-3.6-3.13-5.79-6.36-6.57-9.7-.89-3.7-.5-7.47,1.17-11.3,1.67-3.83,4.59-7.36,8.76-10.6,4.9-3.81,11.25-6.74,19.04-8.8C37.23-.06,45.81-.53,55.17.59c9.36,1.12,18.86,4.5,28.51,10.13,9.64,5.63,18.77,14.23,27.37,25.81,2.08,3.55,1.59,6.67-1.49,9.38-3.55,2.09-6.67,1.59-9.38-1.49-6.99-9.44-14.39-16.55-22.21-21.35-7.82-4.8-15.52-7.78-23.11-8.95-7.59-1.17-14.53-1.03-20.84.43-6.31,1.46-11.47,3.73-15.48,6.8-2.03,1.56-3.55,3.23-4.54,5.01-.52,1.04-.68,2.03-.47,2.97.31,1.2,1.2,2.29,2.66,3.28,2.35,1.72,5.79,3.13,10.32,4.22,7.92,1.88,15.57,3.83,22.95,5.87,7.38,2.03,14.38,4.81,21,8.33,6.62,3.52,12.77,8.46,18.46,14.82,5.89,6.88,9.44,14.57,10.64,23.07,1.2,8.5-.04,16.54-3.71,24.13-3.68,7.59-9.79,13.52-18.34,17.79-7.19,3.34-14.66,5.15-22.41,5.43-7.74.29-15.34-.87-22.8-3.48-6.83-2.45-12.2-5.57-16.11-9.35-3.91-3.78-6.62-7.81-8.13-12.08-1.56-4.54-2.05-9.06-1.45-13.57.6-4.51,2.1-8.64,4.5-12.4,2.45-3.81,5.58-6.91,9.38-9.31,3.81-2.4,8.08-3.78,12.83-4.14,4.43-.31,9.11.6,14.04,2.74,4.93,2.14,9.87,5.94,14.82,11.42Z"/>
  <path class="cls-3" d="M213.34,66.87c5.84,2.66,10.78,6.4,14.82,11.22,4.04,4.82,6.5,10.57,7.39,17.24.99,11.1-1.56,20.09-7.66,26.94-6.1,6.86-14.34,11.72-24.71,14.59-8.45,2.29-17.3,3.31-26.55,3.05-9.26-.26-17.9-1.62-25.92-4.07-11.94-3.81-20.33-9.41-25.18-16.81-3.49-5.68-5.61-11.77-6.33-18.26-.73-6.49-.11-12.92,1.88-19.28,3.28-10.01,8.45-18.04,15.48-24.09,7.04-6.05,15.13-10.15,24.28-12.32,9.15-2.16,18.5-2.44,28.04-.82,9.54,1.62,18.46,5.08,26.75,10.4,3.23,2.55,3.88,5.66,1.96,9.31-1.04,1.51-2.45,2.48-4.22,2.89ZM177.13,56.51c-9.7-.13-18.5,2.18-26.39,6.92-7.9,4.74-13.54,12.1-16.93,22.05-2.82,9.28-1.8,18.09,3.05,26.43,2.76,4.07,7.3,7.27,13.61,9.62,11.11,4.22,23.38,5.76,36.83,4.61,6.52-.57,12.54-1.96,18.07-4.15,5.53-2.19,9.87-5.33,13.02-9.42,3.15-4.09,4.42-9.35,3.79-15.76-.57-4.48-2.31-8.29-5.2-11.42-2.89-3.13-6.4-5.5-10.52-7.12-4.12-1.62-8.29-2.45-12.51-2.5-10.17.1-19.5,3.02-28,8.76-4.85,3.34-7.38,6.73-7.59,10.17-.05,2.61.85,4.95,2.7,7.04,1.85,2.09,4.18,3.86,7,5.32,3.44,1.83,7.14,2.92,11.1,3.28,3.96.36,7.64-.35,11.03-2.15,3.39-1.8,5.99-4.99,7.82-9.58.21-.78.05-1.42-.47-1.92-.52-.5-1.17-.9-1.95-1.21-3.39-1.56-7.09-2.06-11.11-1.49-2.09.26-3.83.97-5.24,2.11-3.34,2.45-6.52,2.27-9.54-.55-2.4-3.28-2.22-6.44.55-9.46,3.91-3.28,8.88-5.12,14.9-5.51,6.02-.39,11.48.56,16.38,2.85,4.07,1.98,6.97,4.67,8.72,8.06,1.75,3.39,1.86,7.27.35,11.65-2.92,7.61-7.14,13.03-12.67,16.27-5.53,3.23-11.52,4.71-17.99,4.42-6.47-.29-12.51-1.92-18.14-4.89-5.32-2.82-9.5-6.44-12.55-10.87-3.05-4.43-4.47-9.18-4.26-14.23.16-3.34,1.26-6.74,3.32-10.21,2.06-3.47,5.38-6.84,9.97-10.13,10.84-7.3,22.76-11,35.74-11.11,3.6,0,7.17.44,10.71,1.33-8.71-4.69-17.91-7.1-27.61-7.23Z"/>
  <path class="cls-1" d="M257.21,39.97c-.47.31-.94.68-1.41,1.09-1.46,1.41-3.08,3.1-4.85,5.08-3.13,2.66-6.31,2.71-9.54.16-2.66-3.08-2.71-6.23-.16-9.46,3.08-3.39,5.76-5.97,8.06-7.74,2.76-1.98,5.53-2.94,8.29-2.89,1.82,0,3.86.65,6.1,1.96,2.24,1.3,4.64,3.6,7.19,6.88,5.01,6.67,8.58,13.95,10.71,21.82,2.14,7.87,3.26,16.06,3.36,24.56.16,7.93-.23,15.82-1.17,23.7-.94,7.87-2.01,15.41-3.21,22.6-.99,3.96-3.55,5.81-7.66,5.55-3.96-.99-5.84-3.52-5.63-7.59,1.15-6.88,2.18-14.05,3.09-21.51.91-7.45,1.32-14.96,1.21-22.52-.1-6.99-1-13.76-2.7-20.33-1.69-6.57-4.57-12.62-8.64-18.14-1.2-1.46-2.22-2.53-3.05-3.21Z"/>
  <path class="cls-1" d="M364.97,80.71c3.86,1.41,5.45,4.14,4.77,8.21-1.46,3.86-4.22,5.42-8.29,4.69-3.49-.99-7.04-1.9-10.64-2.74-3.6-.83-7.17-1.3-10.71-1.41-2.92-.1-5.74.27-8.45,1.13-2.71.86-5.27,2.44-7.66,4.73-3.18,3.02-4.64,6-4.38,8.92.31,2.55,1.49,4.88,3.52,6.96,2.03,2.09,4.56,3.94,7.59,5.55,5.99,3.23,12.72,5.08,20.18,5.55,7.45.47,14.32-1.15,20.61-4.85,6.28-3.7,10.62-10.19,13.02-19.47,1.51-7.66.31-14.36-3.6-20.1-3.91-5.73-9.26-10.3-16.03-13.69-7.19-3.6-14.78-5.67-22.76-6.22s-15.12.82-21.43,4.11c-3.81,1.62-6.86.73-9.15-2.66-1.62-3.75-.73-6.78,2.66-9.07,8.13-4.27,17.32-6.18,27.57-5.71,10.25.47,19.98,3,29.21,7.59,9.59,4.85,16.98,11.46,22.17,19.82,5.19,8.37,6.66,18.03,4.42,28.97-2.35,9.59-6.31,17.06-11.89,22.41-5.58,5.34-11.99,8.9-19.24,10.68-7.25,1.77-14.57,2.11-21.98,1.02-7.4-1.09-14.13-3.28-20.18-6.57-10.79-6.1-16.81-13.79-18.07-23.07-.31-3.18.17-6.45,1.45-9.81,1.28-3.36,3.58-6.69,6.92-9.97,3.86-3.7,7.95-6.27,12.28-7.7,4.33-1.43,8.84-2.07,13.53-1.92,4.07.1,8.17.61,12.32,1.52,4.14.91,8.22,1.94,12.24,3.09Z"/>
  <path class="cls-1" d="M432.78,130.29c-.26,4.12-2.42,6.41-6.49,6.88-4.12-.26-6.41-2.42-6.88-6.49-.16-8.81-.04-17.6.35-26.35.39-8.76.66-17.54.82-26.36,0-5.32-.25-10.61-.74-15.88-.5-5.27-.9-10.53-1.21-15.8.21-4.12,2.35-6.46,6.41-7.04,4.07.21,6.39,2.35,6.96,6.41.31,5.42.72,10.82,1.21,16.19.49,5.37.77,10.77.82,16.19-.16,8.76-.44,17.48-.86,26.16-.42,8.68-.55,17.37-.39,26.08ZM433.64,87.2c-1.56,3.75-4.38,5.21-8.45,4.38-3.75-1.56-5.21-4.35-4.38-8.37.94-3.13,2.39-6.61,4.34-10.44,1.95-3.83,4.31-7.64,7.08-11.42,2.76-3.78,5.81-7.18,9.15-10.21,3.86-3.49,7.99-6.06,12.4-7.7,4.4-1.64,8.93-2.1,13.57-1.37,3.96,1.1,5.76,3.7,5.4,7.82-1.09,3.91-3.68,5.71-7.74,5.4-2.66-.42-5.21-.05-7.66,1.1-2.45,1.15-4.8,2.74-7.04,4.77-1.62,1.46-3.15,3.05-4.61,4.77-1.46,1.72-2.83,3.51-4.11,5.36-1.28,1.85-2.42,3.7-3.44,5.55-1.02,1.85-1.92,3.66-2.7,5.44-.78,1.77-1.38,3.42-1.8,4.93Z"/>
  <path class="cls-1" d="M486.66,29.8c-.16-4.12,1.77-6.62,5.79-7.51,4.12-.1,6.62,1.85,7.51,5.87,2.4,17.99,4.17,36.07,5.32,54.24,1.15,18.17.29,36.27-2.58,54.31-1.09,3.96-3.68,5.79-7.74,5.47-3.96-1.09-5.79-3.68-5.47-7.74,2.76-17.41,3.57-34.87,2.42-52.36-1.15-17.49-2.89-34.92-5.24-52.28ZM499.64,96.82c-3.96,1.09-6.86-.21-8.68-3.91-1.15-3.96.13-6.86,3.83-8.68,4.22-1.62,8.69-3.25,13.41-4.89,4.72-1.64,9.57-3.08,14.55-4.3,4.98-1.22,9.97-2.07,14.98-2.54,5.47-.42,10.84-.18,16.11.7,5.26.89,10.3,2.66,15.09,5.32,3.39,2.29,4.27,5.32,2.66,9.07-2.35,3.39-5.4,4.28-9.15,2.66-4.64-2.5-9.53-3.95-14.66-4.34-5.14-.39-10.34-.12-15.6.82-5.79,1.04-11.45,2.5-16.97,4.38-5.53,1.88-10.71,3.78-15.56,5.71ZM547.9,26.52c-.89-4.01.57-6.83,4.38-8.45,4.01-.83,6.8.65,8.37,4.46,4.8,14.96,8.52,29.61,11.18,43.95,2.66,14.34,4.04,29.43,4.14,45.28.16,7.19-.03,14.38-.55,21.55-.52,7.17-1.96,14.19-4.3,21.08-1.72,3.7-4.59,5.06-8.6,4.07-3.7-1.77-5.06-4.64-4.07-8.6,2.14-6.1,3.39-12.37,3.75-18.81.36-6.44.49-12.84.39-19.2-.11-15.17-1.45-29.61-4.03-43.32-2.58-13.71-6.14-27.71-10.68-42Z"/>
  <path class="cls-2" d="M689.84,66.87c5.84,2.66,10.78,6.4,14.82,11.22,4.04,4.82,6.5,10.57,7.39,17.24.99,11.1-1.56,20.09-7.66,26.94-6.1,6.86-14.34,11.72-24.71,14.59-8.45,2.29-17.3,3.31-26.55,3.05-9.26-.26-17.9-1.62-25.93-4.07-11.94-3.81-20.33-9.41-25.18-16.81-3.49-5.68-5.61-11.77-6.33-18.26-.73-6.49-.11-12.92,1.88-19.28,3.28-10.01,8.45-18.04,15.48-24.09,7.04-6.05,15.13-10.15,24.28-12.32,9.15-2.16,18.5-2.44,28.04-.82,9.54,1.62,18.46,5.08,26.75,10.4,3.23,2.55,3.88,5.66,1.95,9.31-1.04,1.51-2.45,2.48-4.22,2.89ZM653.63,56.51c-9.7-.13-18.5,2.18-26.39,6.92-7.9,4.74-13.54,12.1-16.93,22.05-2.82,9.28-1.8,18.09,3.05,26.43,2.76,4.07,7.3,7.27,13.61,9.62,11.11,4.22,23.38,5.76,36.83,4.61,6.52-.57,12.54-1.96,18.06-4.15s9.87-5.33,13.02-9.42c3.15-4.09,4.42-9.35,3.79-15.76-.57-4.48-2.31-8.29-5.2-11.42-2.89-3.13-6.4-5.5-10.52-7.12-4.12-1.62-8.29-2.45-12.51-2.5-10.17.1-19.5,3.02-28,8.76-4.85,3.34-7.38,6.73-7.59,10.17-.05,2.61.85,4.95,2.7,7.04,1.85,2.09,4.18,3.86,7,5.32,3.44,1.83,7.14,2.92,11.1,3.28,3.96.36,7.64-.35,11.03-2.15,3.39-1.8,5.99-4.99,7.82-9.58.21-.78.05-1.42-.47-1.92-.52-.5-1.17-.9-1.95-1.21-3.39-1.56-7.09-2.06-11.1-1.49-2.09.26-3.83.97-5.24,2.11-3.34,2.45-6.52,2.27-9.54-.55-2.4-3.28-2.22-6.44.55-9.46,3.91-3.28,8.88-5.12,14.9-5.51,6.02-.39,11.48.56,16.38,2.85,4.07,1.98,6.97,4.67,8.72,8.06,1.75,3.39,1.86,7.27.35,11.65-2.92,7.61-7.14,13.03-12.67,16.27-5.53,3.23-11.52,4.71-17.99,4.42-6.47-.29-12.51-1.92-18.14-4.89-5.32-2.82-9.5-6.44-12.55-10.87-3.05-4.43-4.47-9.18-4.26-14.23.16-3.34,1.26-6.74,3.32-10.21,2.06-3.47,5.38-6.84,9.97-10.13,10.84-7.3,22.76-11,35.74-11.11,3.6,0,7.17.44,10.71,1.33-8.71-4.69-17.91-7.1-27.61-7.23Z"/>
  <path class="cls-1" d="M743.88,114.03c-3.18-2.55-3.81-5.66-1.88-9.31,2.55-3.18,5.63-3.8,9.23-1.88,4.07,2.71,8.65,5.51,13.76,8.41,5.11,2.89,10.4,5.29,15.88,7.19,5.47,1.9,10.74,2.75,15.8,2.54,6.57-.57,12.27-3.01,17.09-7.31,4.82-4.3,8.51-9.58,11.07-15.84,2.66-6.26,3.9-12.66,3.71-19.2-.18-6.54-2.18-12.37-5.98-17.48-3.39-4.43-8.34-7.65-14.86-9.66-6.52-2.01-14.76-2.41-24.71-1.21-10.06,1.36-19.08,4.97-27.06,10.83-7.98,5.87-14.1,13.15-18.38,21.86-2.14,3.49-5.11,4.54-8.92,3.13-3.55-2.14-4.59-5.13-3.13-8.99,5.21-10.64,12.72-19.56,22.52-26.79,9.8-7.22,20.91-11.69,33.31-13.41,13.14-1.46,23.94-.64,32.42,2.46,8.47,3.1,14.92,7.6,19.36,13.49,5.27,7.04,8.16,15.03,8.68,23.97.52,8.94-.99,17.69-4.54,26.24-3.65,8.6-8.9,15.78-15.76,21.55-6.86,5.76-14.85,9.01-23.97,9.74-5.94.26-12.16-.65-18.65-2.74-6.49-2.08-12.76-4.74-18.81-7.98-6.05-3.23-11.44-6.44-16.19-9.62ZM740.36,204.43c-1.04,3.96-3.62,5.81-7.74,5.55-3.96-1.04-5.81-3.6-5.55-7.66,1.1-6.52,2.61-16.49,4.54-29.91,1.93-13.43,3.68-28.09,5.24-43.99,1.56-15.9,2.37-30.78,2.42-44.65,0-10.11-.76-18.51-2.27-25.18-.68-3.39-1.69-5.92-3.05-7.59-2.4-3.34-2.19-6.52.63-9.54,3.28-2.4,6.44-2.19,9.46.63,2.61,2.97,4.61,7.43,6.02,13.37,1.72,7.51,2.58,16.92,2.58,28.23,0,14.13-.81,29.29-2.42,45.48-1.62,16.19-3.4,31.11-5.36,44.77-1.96,13.66-3.46,23.83-4.5,30.5Z"/>
</svg>